<?xml version="1.0" encoding="UTF-8" standalone="no"?>
<!DOCTYPE svg PUBLIC "-//W3C//DTD SVG 1.1//EN"
 "http://www.w3.org/Graphics/SVG/1.1/DTD/svg11.dtd">
<!-- Generated by graphviz version 11.0.1~dev.20240512.0604 (20240512.0604)
 -->
<!-- Pages: 1 -->
<svg width="425pt" height="476pt"
 viewBox="0.00 0.00 424.60 476.00" xmlns="http://www.w3.org/2000/svg" xmlns:xlink="http://www.w3.org/1999/xlink">
<g id="graph0" class="graph" transform="scale(1 1) rotate(0) translate(4 472)">
<polygon fill="white" stroke="none" points="-4,4 -4,-472 420.6,-472 420.6,4 -4,4"/>
<g id="node1" class="node">
<title></title>
<polygon fill="none" stroke="black" points="200.6,-468 146.6,-468 146.6,-432 200.6,-432 200.6,-468"/>
</g>
<!-- a -->
<g id="node2" class="node">
<title>a</title>
<polygon fill="none" stroke="black" points="92.6,-396 38.6,-396 38.6,-360 92.6,-360 92.6,-396"/>
<text text-anchor="middle" x="65.6" y="-373.8" font-family="Times,serif" font-size="14.00">a</text>
</g>
<!-- &#45;&gt;a -->
<g id="edge1" class="edge">
<title>&#45;&gt;a</title>
<path fill="none" stroke="black" d="M146.63,-431.52C133,-422.68 116.27,-411.84 101.56,-402.3"/>
<polygon fill="black" stroke="black" points="103.8,-399.59 93.5,-397.08 99.99,-405.46 103.8,-399.59"/>
</g>
<!-- b -->
<g id="node4" class="node">
<title>b</title>
<polygon fill="none" stroke="black" points="164.6,-396 110.6,-396 110.6,-360 164.6,-360 164.6,-396"/>
<text text-anchor="middle" x="137.6" y="-373.8" font-family="Times,serif" font-size="14.00">b</text>
</g>
<!-- &#45;&gt;b -->
<g id="edge3" class="edge">
<title>&#45;&gt;b</title>
<path fill="none" stroke="black" d="M164.7,-431.7C160.74,-423.98 155.97,-414.71 151.55,-406.11"/>
<polygon fill="black" stroke="black" points="154.78,-404.74 147.09,-397.45 148.55,-407.94 154.78,-404.74"/>
</g>
<!-- l -->
<g id="node13" class="node">
<title>l</title>
<polygon fill="none" stroke="black" points="236.6,-396 182.6,-396 182.6,-360 236.6,-360 236.6,-396"/>
<text text-anchor="middle" x="209.6" y="-373.8" font-family="Times,serif" font-size="14.00">l</text>
</g>
<!-- &#45;&gt;l -->
<g id="edge12" class="edge">
<title>&#45;&gt;l</title>
<path fill="none" stroke="black" d="M182.5,-431.7C186.47,-423.98 191.24,-414.71 195.66,-406.11"/>
<polygon fill="black" stroke="black" points="198.65,-407.94 200.11,-397.45 192.43,-404.74 198.65,-407.94"/>
</g>
<!-- z -->
<g id="node21" class="node">
<title>z</title>
<polygon fill="none" stroke="black" points="326.6,-396 272.6,-396 272.6,-360 326.6,-360 326.6,-396"/>
<text text-anchor="middle" x="299.6" y="-373.8" font-family="Times,serif" font-size="14.00">z</text>
</g>
<!-- &#45;&gt;z -->
<g id="edge20" class="edge">
<title>&#45;&gt;z</title>
<path fill="none" stroke="black" d="M200.94,-433.81C218.94,-423.81 242.73,-410.6 262.43,-399.65"/>
<polygon fill="black" stroke="black" points="263.95,-402.81 270.99,-394.89 260.55,-396.69 263.95,-402.81"/>
</g>
<!-- at -->
<g id="node3" class="node">
<title>at</title>
<polygon fill="none" stroke="red" points="86.6,-324 38.6,-324 38.6,-288 92.6,-288 92.6,-318 86.6,-324"/>
<polyline fill="none" stroke="red" points="86.6,-324 86.6,-318"/>
<polyline fill="none" stroke="red" points="92.6,-318 86.6,-318"/>
<text text-anchor="middle" x="65.6" y="-301.8" font-family="Times,serif" font-size="14.00">at</text>
</g>
<!-- a&#45;&gt;at -->
<g id="edge2" class="edge">
<title>a&#45;&gt;at</title>
<path fill="none" stroke="black" d="M65.6,-359.7C65.6,-352.41 65.6,-343.73 65.6,-335.54"/>
<polygon fill="black" stroke="black" points="69.1,-335.62 65.6,-325.62 62.1,-335.62 69.1,-335.62"/>
</g>
<!-- ba -->
<g id="node5" class="node">
<title>ba</title>
<polygon fill="none" stroke="black" points="164.6,-324 110.6,-324 110.6,-288 164.6,-288 164.6,-324"/>
<text text-anchor="middle" x="137.6" y="-301.8" font-family="Times,serif" font-size="14.00">ba</text>
</g>
<!-- b&#45;&gt;ba -->
<g id="edge4" class="edge">
<title>b&#45;&gt;ba</title>
<path fill="none" stroke="black" d="M137.6,-359.7C137.6,-352.41 137.6,-343.73 137.6,-335.54"/>
<polygon fill="black" stroke="black" points="141.1,-335.62 137.6,-325.62 134.1,-335.62 141.1,-335.62"/>
</g>
<!-- bat -->
<g id="node6" class="node">
<title>bat</title>
<polygon fill="none" stroke="red" points="122.6,-252 74.6,-252 74.6,-216 128.6,-216 128.6,-246 122.6,-252"/>
<polyline fill="none" stroke="red" points="122.6,-252 122.6,-246"/>
<polyline fill="none" stroke="red" points="128.6,-246 122.6,-246"/>
<text text-anchor="middle" x="101.6" y="-229.8" font-family="Times,serif" font-size="14.00">bat</text>
</g>
<!-- ba&#45;&gt;bat -->
<g id="edge5" class="edge">
<title>ba&#45;&gt;bat</title>
<path fill="none" stroke="black" d="M128.7,-287.7C124.74,-279.98 119.97,-270.71 115.55,-262.11"/>
<polygon fill="black" stroke="black" points="118.78,-260.74 111.09,-253.45 112.55,-263.94 118.78,-260.74"/>
</g>
<!-- batm -->
<g id="node7" class="node">
<title>batm</title>
<polygon fill="none" stroke="black" points="56.6,-180 2.6,-180 2.6,-144 56.6,-144 56.6,-180"/>
<text text-anchor="middle" x="29.6" y="-157.8" font-family="Times,serif" font-size="14.00">batm</text>
</g>
<!-- bat&#45;&gt;batm -->
<g id="edge6" class="edge">
<title>bat&#45;&gt;batm</title>
<path fill="none" stroke="black" d="M83.81,-215.7C75.32,-207.45 65.02,-197.43 55.67,-188.35"/>
<polygon fill="black" stroke="black" points="58.14,-185.86 48.53,-181.4 53.26,-190.88 58.14,-185.86"/>
</g>
<!-- batt -->
<g id="node10" class="node">
<title>batt</title>
<polygon fill="none" stroke="black" points="128.6,-180 74.6,-180 74.6,-144 128.6,-144 128.6,-180"/>
<text text-anchor="middle" x="101.6" y="-157.8" font-family="Times,serif" font-size="14.00">batt</text>
</g>
<!-- bat&#45;&gt;batt -->
<g id="edge9" class="edge">
<title>bat&#45;&gt;batt</title>
<path fill="none" stroke="black" d="M101.6,-215.7C101.6,-208.41 101.6,-199.73 101.6,-191.54"/>
<polygon fill="black" stroke="black" points="105.1,-191.62 101.6,-181.62 98.1,-191.62 105.1,-191.62"/>
</g>
<!-- batma -->
<g id="node8" class="node">
<title>batma</title>
<polygon fill="none" stroke="black" points="56.6,-108 2.6,-108 2.6,-72 56.6,-72 56.6,-108"/>
<text text-anchor="middle" x="29.6" y="-85.8" font-family="Times,serif" font-size="14.00">batma</text>
</g>
<!-- batm&#45;&gt;batma -->
<g id="edge7" class="edge">
<title>batm&#45;&gt;batma</title>
<path fill="none" stroke="black" d="M29.6,-143.7C29.6,-136.41 29.6,-127.73 29.6,-119.54"/>
<polygon fill="black" stroke="black" points="33.1,-119.62 29.6,-109.62 26.1,-119.62 33.1,-119.62"/>
</g>
<!-- batman -->
<g id="node9" class="node">
<title>batman</title>
<polygon fill="none" stroke="red" points="51.21,-36 0,-36 0,0 57.21,0 57.21,-30 51.21,-36"/>
<polyline fill="none" stroke="red" points="51.21,-36 51.21,-30"/>
<polyline fill="none" stroke="red" points="57.21,-30 51.21,-30"/>
<text text-anchor="middle" x="28.6" y="-13.8" font-family="Times,serif" font-size="14.00">batman</text>
</g>
<!-- batma&#45;&gt;batman -->
<g id="edge8" class="edge">
<title>batma&#45;&gt;batman</title>
<path fill="none" stroke="black" d="M29.36,-71.7C29.25,-64.41 29.13,-55.73 29.01,-47.54"/>
<polygon fill="black" stroke="black" points="32.51,-47.57 28.87,-37.62 25.51,-47.67 32.51,-47.57"/>
</g>
<!-- battl -->
<g id="node11" class="node">
<title>battl</title>
<polygon fill="none" stroke="black" points="129.6,-108 75.6,-108 75.6,-72 129.6,-72 129.6,-108"/>
<text text-anchor="middle" x="102.6" y="-85.8" font-family="Times,serif" font-size="14.00">battl</text>
</g>
<!-- batt&#45;&gt;battl -->
<g id="edge10" class="edge">
<title>batt&#45;&gt;battl</title>
<path fill="none" stroke="black" d="M101.85,-143.7C101.95,-136.41 102.08,-127.73 102.2,-119.54"/>
<polygon fill="black" stroke="black" points="105.69,-119.67 102.34,-109.62 98.69,-119.57 105.69,-119.67"/>
</g>
<!-- battle -->
<g id="node12" class="node">
<title>battle</title>
<polygon fill="none" stroke="red" points="123.6,-36 75.6,-36 75.6,0 129.6,0 129.6,-30 123.6,-36"/>
<polyline fill="none" stroke="red" points="123.6,-36 123.6,-30"/>
<polyline fill="none" stroke="red" points="129.6,-30 123.6,-30"/>
<text text-anchor="middle" x="102.6" y="-13.8" font-family="Times,serif" font-size="14.00">battle</text>
</g>
<!-- battl&#45;&gt;battle -->
<g id="edge11" class="edge">
<title>battl&#45;&gt;battle</title>
<path fill="none" stroke="black" d="M102.6,-71.7C102.6,-64.41 102.6,-55.73 102.6,-47.54"/>
<polygon fill="black" stroke="black" points="106.1,-47.62 102.6,-37.62 99.1,-47.62 106.1,-47.62"/>
</g>
<!-- li -->
<g id="node14" class="node">
<title>li</title>
<polygon fill="none" stroke="black" points="236.6,-324 182.6,-324 182.6,-288 236.6,-288 236.6,-324"/>
<text text-anchor="middle" x="209.6" y="-301.8" font-family="Times,serif" font-size="14.00">li</text>
</g>
<!-- l&#45;&gt;li -->
<g id="edge13" class="edge">
<title>l&#45;&gt;li</title>
<path fill="none" stroke="black" d="M209.6,-359.7C209.6,-352.41 209.6,-343.73 209.6,-335.54"/>
<polygon fill="black" stroke="black" points="213.1,-335.62 209.6,-325.62 206.1,-335.62 213.1,-335.62"/>
</g>
<!-- lio -->
<g id="node15" class="node">
<title>lio</title>
<polygon fill="none" stroke="black" points="200.6,-252 146.6,-252 146.6,-216 200.6,-216 200.6,-252"/>
<text text-anchor="middle" x="173.6" y="-229.8" font-family="Times,serif" font-size="14.00">lio</text>
</g>
<!-- li&#45;&gt;lio -->
<g id="edge14" class="edge">
<title>li&#45;&gt;lio</title>
<path fill="none" stroke="black" d="M200.7,-287.7C196.74,-279.98 191.97,-270.71 187.55,-262.11"/>
<polygon fill="black" stroke="black" points="190.78,-260.74 183.09,-253.45 184.55,-263.94 190.78,-260.74"/>
</g>
<!-- liq -->
<g id="node17" class="node">
<title>liq</title>
<polygon fill="none" stroke="black" points="272.6,-252 218.6,-252 218.6,-216 272.6,-216 272.6,-252"/>
<text text-anchor="middle" x="245.6" y="-229.8" font-family="Times,serif" font-size="14.00">liq</text>
</g>
<!-- li&#45;&gt;liq -->
<g id="edge16" class="edge">
<title>li&#45;&gt;liq</title>
<path fill="none" stroke="black" d="M218.5,-287.7C222.47,-279.98 227.24,-270.71 231.66,-262.11"/>
<polygon fill="black" stroke="black" points="234.65,-263.94 236.11,-253.45 228.43,-260.74 234.65,-263.94"/>
</g>
<!-- lion -->
<g id="node16" class="node">
<title>lion</title>
<polygon fill="none" stroke="red" points="194.6,-180 146.6,-180 146.6,-144 200.6,-144 200.6,-174 194.6,-180"/>
<polyline fill="none" stroke="red" points="194.6,-180 194.6,-174"/>
<polyline fill="none" stroke="red" points="200.6,-174 194.6,-174"/>
<text text-anchor="middle" x="173.6" y="-157.8" font-family="Times,serif" font-size="14.00">lion</text>
</g>
<!-- lio&#45;&gt;lion -->
<g id="edge15" class="edge">
<title>lio&#45;&gt;lion</title>
<path fill="none" stroke="black" d="M173.6,-215.7C173.6,-208.41 173.6,-199.73 173.6,-191.54"/>
<polygon fill="black" stroke="black" points="177.1,-191.62 173.6,-181.62 170.1,-191.62 177.1,-191.62"/>
</g>
<!-- liqu -->
<g id="node18" class="node">
<title>liqu</title>
<polygon fill="none" stroke="black" points="272.6,-180 218.6,-180 218.6,-144 272.6,-144 272.6,-180"/>
<text text-anchor="middle" x="245.6" y="-157.8" font-family="Times,serif" font-size="14.00">liqu</text>
</g>
<!-- liq&#45;&gt;liqu -->
<g id="edge17" class="edge">
<title>liq&#45;&gt;liqu</title>
<path fill="none" stroke="black" d="M245.6,-215.7C245.6,-208.41 245.6,-199.73 245.6,-191.54"/>
<polygon fill="black" stroke="black" points="249.1,-191.62 245.6,-181.62 242.1,-191.62 249.1,-191.62"/>
</g>
<!-- liquo -->
<g id="node19" class="node">
<title>liquo</title>
<polygon fill="none" stroke="black" points="272.6,-108 218.6,-108 218.6,-72 272.6,-72 272.6,-108"/>
<text text-anchor="middle" x="245.6" y="-85.8" font-family="Times,serif" font-size="14.00">liquo</text>
</g>
<!-- liqu&#45;&gt;liquo -->
<g id="edge18" class="edge">
<title>liqu&#45;&gt;liquo</title>
<path fill="none" stroke="black" d="M245.6,-143.7C245.6,-136.41 245.6,-127.73 245.6,-119.54"/>
<polygon fill="black" stroke="black" points="249.1,-119.62 245.6,-109.62 242.1,-119.62 249.1,-119.62"/>
</g>
<!-- liquor -->
<g id="node20" class="node">
<title>liquor</title>
<polygon fill="none" stroke="red" points="266.6,-36 218.6,-36 218.6,0 272.6,0 272.6,-30 266.6,-36"/>
<polyline fill="none" stroke="red" points="266.6,-36 266.6,-30"/>
<polyline fill="none" stroke="red" points="272.6,-30 266.6,-30"/>
<text text-anchor="middle" x="245.6" y="-13.8" font-family="Times,serif" font-size="14.00">liquor</text>
</g>
<!-- liquo&#45;&gt;liquor -->
<g id="edge19" class="edge">
<title>liquo&#45;&gt;liquor</title>
<path fill="none" stroke="black" d="M245.6,-71.7C245.6,-64.41 245.6,-55.73 245.6,-47.54"/>
<polygon fill="black" stroke="black" points="249.1,-47.62 245.6,-37.62 242.1,-47.62 249.1,-47.62"/>
</g>
<!-- ze -->
<g id="node22" class="node">
<title>ze</title>
<polygon fill="none" stroke="black" points="344.6,-324 290.6,-324 290.6,-288 344.6,-288 344.6,-324"/>
<text text-anchor="middle" x="317.6" y="-301.8" font-family="Times,serif" font-size="14.00">ze</text>
</g>
<!-- z&#45;&gt;ze -->
<g id="edge21" class="edge">
<title>z&#45;&gt;ze</title>
<path fill="none" stroke="black" d="M304.05,-359.7C305.95,-352.32 308.21,-343.52 310.34,-335.25"/>
<polygon fill="black" stroke="black" points="313.73,-336.13 312.83,-325.57 306.95,-334.38 313.73,-336.13"/>
</g>
<!-- zeb -->
<g id="node23" class="node">
<title>zeb</title>
<polygon fill="none" stroke="black" points="344.6,-252 290.6,-252 290.6,-216 344.6,-216 344.6,-252"/>
<text text-anchor="middle" x="317.6" y="-229.8" font-family="Times,serif" font-size="14.00">zeb</text>
</g>
<!-- ze&#45;&gt;zeb -->
<g id="edge22" class="edge">
<title>ze&#45;&gt;zeb</title>
<path fill="none" stroke="black" d="M317.6,-287.7C317.6,-280.41 317.6,-271.73 317.6,-263.54"/>
<polygon fill="black" stroke="black" points="321.1,-263.62 317.6,-253.62 314.1,-263.62 321.1,-263.62"/>
</g>
<!-- zet -->
<g id="node26" class="node">
<title>zet</title>
<polygon fill="none" stroke="black" points="416.6,-252 362.6,-252 362.6,-216 416.6,-216 416.6,-252"/>
<text text-anchor="middle" x="389.6" y="-229.8" font-family="Times,serif" font-size="14.00">zet</text>
</g>
<!-- ze&#45;&gt;zet -->
<g id="edge25" class="edge">
<title>ze&#45;&gt;zet</title>
<path fill="none" stroke="black" d="M335.4,-287.7C343.88,-279.45 354.19,-269.43 363.53,-260.35"/>
<polygon fill="black" stroke="black" points="365.95,-262.88 370.68,-253.4 361.07,-257.86 365.95,-262.88"/>
</g>
<!-- zebr -->
<g id="node24" class="node">
<title>zebr</title>
<polygon fill="none" stroke="black" points="344.6,-180 290.6,-180 290.6,-144 344.6,-144 344.6,-180"/>
<text text-anchor="middle" x="317.6" y="-157.8" font-family="Times,serif" font-size="14.00">zebr</text>
</g>
<!-- zeb&#45;&gt;zebr -->
<g id="edge23" class="edge">
<title>zeb&#45;&gt;zebr</title>
<path fill="none" stroke="black" d="M317.6,-215.7C317.6,-208.41 317.6,-199.73 317.6,-191.54"/>
<polygon fill="black" stroke="black" points="321.1,-191.62 317.6,-181.62 314.1,-191.62 321.1,-191.62"/>
</g>
<!-- zebra -->
<g id="node25" class="node">
<title>zebra</title>
<polygon fill="none" stroke="red" points="338.6,-108 290.6,-108 290.6,-72 344.6,-72 344.6,-102 338.6,-108"/>
<polyline fill="none" stroke="red" points="338.6,-108 338.6,-102"/>
<polyline fill="none" stroke="red" points="344.6,-102 338.6,-102"/>
<text text-anchor="middle" x="317.6" y="-85.8" font-family="Times,serif" font-size="14.00">zebra</text>
</g>
<!-- zebr&#45;&gt;zebra -->
<g id="edge24" class="edge">
<title>zebr&#45;&gt;zebra</title>
<path fill="none" stroke="black" d="M317.6,-143.7C317.6,-136.41 317.6,-127.73 317.6,-119.54"/>
<polygon fill="black" stroke="black" points="321.1,-119.62 317.6,-109.62 314.1,-119.62 321.1,-119.62"/>
</g>
<!-- zeta -->
<g id="node27" class="node">
<title>zeta</title>
<polygon fill="none" stroke="red" points="410.6,-180 362.6,-180 362.6,-144 416.6,-144 416.6,-174 410.6,-180"/>
<polyline fill="none" stroke="red" points="410.6,-180 410.6,-174"/>
<polyline fill="none" stroke="red" points="416.6,-174 410.6,-174"/>
<text text-anchor="middle" x="389.6" y="-157.8" font-family="Times,serif" font-size="14.00">zeta</text>
</g>
<!-- zet&#45;&gt;zeta -->
<g id="edge26" class="edge">
<title>zet&#45;&gt;zeta</title>
<path fill="none" stroke="black" d="M389.6,-215.7C389.6,-208.41 389.6,-199.73 389.6,-191.54"/>
<polygon fill="black" stroke="black" points="393.1,-191.62 389.6,-181.62 386.1,-191.62 393.1,-191.62"/>
</g>
</g>
</svg>
