<?xml version="1.0" encoding="UTF-8" standalone="no"?>
<!DOCTYPE svg PUBLIC "-//W3C//DTD SVG 1.1//EN"
 "http://www.w3.org/Graphics/SVG/1.1/DTD/svg11.dtd">
<!-- Generated by graphviz version 11.0.1~dev.20240512.0604 (20240512.0604)
 -->
<!-- Pages: 1 -->
<svg width="643pt" height="764pt"
 viewBox="0.00 0.00 642.60 764.00" xmlns="http://www.w3.org/2000/svg" xmlns:xlink="http://www.w3.org/1999/xlink">
<g id="graph0" class="graph" transform="scale(1 1) rotate(0) translate(4 760)">
<polygon fill="white" stroke="none" points="-4,4 -4,-760 638.6,-760 638.6,4 -4,4"/>
<g id="node1" class="node">
<title></title>
<polygon fill="none" stroke="black" points="238.6,-756 184.6,-756 184.6,-720 238.6,-720 238.6,-756"/>
</g>
<!-- a -->
<g id="node2" class="node">
<title>a</title>
<polygon fill="none" stroke="black" points="130.6,-684 76.6,-684 76.6,-648 130.6,-648 130.6,-684"/>
<text text-anchor="middle" x="103.6" y="-661.8" font-family="Times,serif" font-size="14.00">a</text>
</g>
<!-- &#45;&gt;a -->
<g id="edge1" class="edge">
<title>&#45;&gt;a</title>
<path fill="none" stroke="black" d="M184.63,-719.52C171,-710.68 154.27,-699.84 139.56,-690.3"/>
<polygon fill="black" stroke="black" points="131.26,-684.92 142.1,-686.59 134.43,-686.98 139.65,-690.36 139.65,-690.36 139.65,-690.36 134.43,-686.98 137.2,-694.14 131.26,-684.92"/>
</g>
<!-- b -->
<g id="node6" class="node">
<title>b</title>
<polygon fill="none" stroke="black" points="202.6,-684 148.6,-684 148.6,-648 202.6,-648 202.6,-684"/>
<text text-anchor="middle" x="175.6" y="-661.8" font-family="Times,serif" font-size="14.00">b</text>
</g>
<!-- &#45;&gt;b -->
<g id="edge5" class="edge">
<title>&#45;&gt;b</title>
<path fill="none" stroke="black" d="M202.7,-719.7C198.69,-711.9 193.87,-702.51 189.4,-693.83"/>
<polygon fill="black" stroke="black" points="184.96,-685.19 193.53,-692.02 186.69,-688.55 189.53,-694.08 189.53,-694.08 189.53,-694.08 186.69,-688.55 185.53,-696.14 184.96,-685.19"/>
</g>
<!-- l -->
<g id="node23" class="node">
<title>l</title>
<polygon fill="none" stroke="black" points="274.6,-684 220.6,-684 220.6,-648 274.6,-648 274.6,-684"/>
<text text-anchor="middle" x="247.6" y="-661.8" font-family="Times,serif" font-size="14.00">l</text>
</g>
<!-- &#45;&gt;l -->
<g id="edge22" class="edge">
<title>&#45;&gt;l</title>
<path fill="none" stroke="black" d="M220.5,-719.7C224.51,-711.9 229.34,-702.51 233.81,-693.83"/>
<polygon fill="black" stroke="black" points="238.25,-685.19 237.68,-696.14 236.52,-688.55 233.68,-694.08 233.68,-694.08 233.68,-694.08 236.52,-688.55 229.67,-692.02 238.25,-685.19"/>
</g>
<!-- z -->
<g id="node40" class="node">
<title>z</title>
<polygon fill="none" stroke="black" points="508.6,-684 454.6,-684 454.6,-648 508.6,-648 508.6,-684"/>
<text text-anchor="middle" x="481.6" y="-661.8" font-family="Times,serif" font-size="14.00">z</text>
</g>
<!-- &#45;&gt;z -->
<g id="edge39" class="edge">
<title>&#45;&gt;z</title>
<path fill="none" stroke="black" d="M238.98,-729.9C287.39,-717.35 388.21,-691.21 443.43,-676.9"/>
<polygon fill="black" stroke="black" points="452.98,-674.42 444.43,-681.29 449.32,-675.37 443.3,-676.93 443.3,-676.93 443.3,-676.93 449.32,-675.37 442.17,-672.58 452.98,-674.42"/>
</g>
<!-- ar -->
<g id="node3" class="node">
<title>ar</title>
<polygon fill="none" stroke="black" points="58.6,-612 4.6,-612 4.6,-576 58.6,-576 58.6,-612"/>
<text text-anchor="middle" x="31.6" y="-589.8" font-family="Times,serif" font-size="14.00">ar</text>
</g>
<!-- a&#45;&gt;ar -->
<g id="edge2" class="edge">
<title>a&#45;&gt;ar</title>
<path fill="none" stroke="black" d="M85.81,-647.7C77.24,-639.37 66.8,-629.22 57.39,-620.07"/>
<polygon fill="black" stroke="black" points="50.32,-613.2 60.63,-616.94 53.03,-615.83 57.49,-620.17 57.49,-620.17 57.49,-620.17 53.03,-615.83 54.35,-623.39 50.32,-613.2"/>
</g>
<!-- at -->
<g id="node5" class="node">
<title>at</title>
<polygon fill="none" stroke="red" points="124.6,-612 76.6,-612 76.6,-576 130.6,-576 130.6,-606 124.6,-612"/>
<polyline fill="none" stroke="red" points="124.6,-612 124.6,-606"/>
<polyline fill="none" stroke="red" points="130.6,-606 124.6,-606"/>
<text text-anchor="middle" x="103.6" y="-589.8" font-family="Times,serif" font-size="14.00">at</text>
</g>
<!-- a&#45;&gt;at -->
<g id="edge4" class="edge">
<title>a&#45;&gt;at</title>
<path fill="none" stroke="black" d="M103.6,-647.7C103.6,-640.32 103.6,-631.52 103.6,-623.25"/>
<polygon fill="black" stroke="black" points="103.6,-613.32 108.1,-623.32 103.6,-617.1 103.6,-623.32 103.6,-623.32 103.6,-623.32 103.6,-617.1 99.1,-623.32 103.6,-613.32"/>
</g>
<!-- art -->
<g id="node4" class="node">
<title>art</title>
<polygon fill="none" stroke="red" points="52.6,-540 4.6,-540 4.6,-504 58.6,-504 58.6,-534 52.6,-540"/>
<polyline fill="none" stroke="red" points="52.6,-540 52.6,-534"/>
<polyline fill="none" stroke="red" points="58.6,-534 52.6,-534"/>
<text text-anchor="middle" x="31.6" y="-517.8" font-family="Times,serif" font-size="14.00">art</text>
</g>
<!-- ar&#45;&gt;art -->
<g id="edge3" class="edge">
<title>ar&#45;&gt;art</title>
<path fill="none" stroke="black" d="M31.6,-575.7C31.6,-568.32 31.6,-559.52 31.6,-551.25"/>
<polygon fill="black" stroke="black" points="31.6,-541.32 36.1,-551.32 31.6,-545.1 31.6,-551.32 31.6,-551.32 31.6,-551.32 31.6,-545.1 27.1,-551.32 31.6,-541.32"/>
</g>
<!-- ba -->
<g id="node7" class="node">
<title>ba</title>
<polygon fill="none" stroke="black" points="202.6,-612 148.6,-612 148.6,-576 202.6,-576 202.6,-612"/>
<text text-anchor="middle" x="175.6" y="-589.8" font-family="Times,serif" font-size="14.00">ba</text>
</g>
<!-- b&#45;&gt;ba -->
<g id="edge6" class="edge">
<title>b&#45;&gt;ba</title>
<path fill="none" stroke="black" d="M175.6,-647.7C175.6,-640.32 175.6,-631.52 175.6,-623.25"/>
<polygon fill="black" stroke="black" points="175.6,-613.32 180.1,-623.32 175.6,-617.1 175.6,-623.32 175.6,-623.32 175.6,-623.32 175.6,-617.1 171.1,-623.32 175.6,-613.32"/>
</g>
<!-- bat -->
<g id="node8" class="node">
<title>bat</title>
<polygon fill="none" stroke="red" points="160.6,-540 112.6,-540 112.6,-504 166.6,-504 166.6,-534 160.6,-540"/>
<polyline fill="none" stroke="red" points="160.6,-540 160.6,-534"/>
<polyline fill="none" stroke="red" points="166.6,-534 160.6,-534"/>
<text text-anchor="middle" x="139.6" y="-517.8" font-family="Times,serif" font-size="14.00">bat</text>
</g>
<!-- ba&#45;&gt;bat -->
<g id="edge7" class="edge">
<title>ba&#45;&gt;bat</title>
<path fill="none" stroke="black" d="M166.7,-575.7C162.69,-567.9 157.87,-558.51 153.4,-549.83"/>
<polygon fill="black" stroke="black" points="148.96,-541.19 157.53,-548.02 150.69,-544.55 153.53,-550.08 153.53,-550.08 153.53,-550.08 150.69,-544.55 149.53,-552.14 148.96,-541.19"/>
</g>
<!-- batm -->
<g id="node9" class="node">
<title>batm</title>
<polygon fill="none" stroke="black" points="57.6,-468 3.6,-468 3.6,-432 57.6,-432 57.6,-468"/>
<text text-anchor="middle" x="30.6" y="-445.8" font-family="Times,serif" font-size="14.00">batm</text>
</g>
<!-- bat&#45;&gt;batm -->
<g id="edge8" class="edge">
<title>bat&#45;&gt;batm</title>
<path fill="none" stroke="black" d="M112.38,-503.52C98.62,-494.68 81.74,-483.84 66.89,-474.3"/>
<polygon fill="black" stroke="black" points="58.51,-468.92 69.35,-470.54 61.69,-470.96 66.92,-474.32 66.92,-474.32 66.92,-474.32 61.69,-470.96 64.49,-478.11 58.51,-468.92"/>
</g>
<!-- bats -->
<g id="node12" class="node">
<title>bats</title>
<polygon fill="none" stroke="black" points="129.6,-468 75.6,-468 75.6,-432 129.6,-432 129.6,-468"/>
<text text-anchor="middle" x="102.6" y="-445.8" font-family="Times,serif" font-size="14.00">bats</text>
</g>
<!-- bat&#45;&gt;bats -->
<g id="edge11" class="edge">
<title>bat&#45;&gt;bats</title>
<path fill="none" stroke="black" d="M130.46,-503.7C126.34,-495.9 121.37,-486.51 116.78,-477.83"/>
<polygon fill="black" stroke="black" points="112.21,-469.18 120.87,-475.92 113.98,-472.52 116.89,-478.02 116.89,-478.02 116.89,-478.02 113.98,-472.52 112.91,-480.13 112.21,-469.18"/>
</g>
<!-- batt -->
<g id="node16" class="node">
<title>batt</title>
<polygon fill="none" stroke="black" points="201.6,-468 147.6,-468 147.6,-432 201.6,-432 201.6,-468"/>
<text text-anchor="middle" x="174.6" y="-445.8" font-family="Times,serif" font-size="14.00">batt</text>
</g>
<!-- bat&#45;&gt;batt -->
<g id="edge15" class="edge">
<title>bat&#45;&gt;batt</title>
<path fill="none" stroke="black" d="M148.26,-503.7C152.11,-495.98 156.75,-486.71 161.05,-478.11"/>
<polygon fill="black" stroke="black" points="165.51,-469.19 165.06,-480.15 163.82,-472.58 161.03,-478.14 161.03,-478.14 161.03,-478.14 163.82,-472.58 157.01,-476.13 165.51,-469.19"/>
</g>
<!-- batma -->
<g id="node10" class="node">
<title>batma</title>
<polygon fill="none" stroke="black" points="56.6,-396 2.6,-396 2.6,-360 56.6,-360 56.6,-396"/>
<text text-anchor="middle" x="29.6" y="-373.8" font-family="Times,serif" font-size="14.00">batma</text>
</g>
<!-- batm&#45;&gt;batma -->
<g id="edge9" class="edge">
<title>batm&#45;&gt;batma</title>
<path fill="none" stroke="black" d="M30.36,-431.7C30.25,-424.32 30.13,-415.52 30.01,-407.25"/>
<polygon fill="black" stroke="black" points="29.87,-397.32 34.51,-407.26 29.92,-401.1 30.01,-407.32 30.01,-407.32 30.01,-407.32 29.92,-401.1 25.51,-407.39 29.87,-397.32"/>
</g>
<!-- batman -->
<g id="node11" class="node">
<title>batman</title>
<polygon fill="none" stroke="red" points="51.21,-324 0,-324 0,-288 57.21,-288 57.21,-318 51.21,-324"/>
<polyline fill="none" stroke="red" points="51.21,-324 51.21,-318"/>
<polyline fill="none" stroke="red" points="57.21,-318 51.21,-318"/>
<text text-anchor="middle" x="28.6" y="-301.8" font-family="Times,serif" font-size="14.00">batman</text>
</g>
<!-- batma&#45;&gt;batman -->
<g id="edge10" class="edge">
<title>batma&#45;&gt;batman</title>
<path fill="none" stroke="black" d="M29.36,-359.7C29.25,-352.32 29.13,-343.52 29.01,-335.25"/>
<polygon fill="black" stroke="black" points="28.87,-325.32 33.51,-335.26 28.92,-329.1 29.01,-335.32 29.01,-335.32 29.01,-335.32 28.92,-329.1 24.51,-335.39 28.87,-325.32"/>
</g>
<!-- batsm -->
<g id="node13" class="node">
<title>batsm</title>
<polygon fill="none" stroke="black" points="129.6,-396 75.6,-396 75.6,-360 129.6,-360 129.6,-396"/>
<text text-anchor="middle" x="102.6" y="-373.8" font-family="Times,serif" font-size="14.00">batsm</text>
</g>
<!-- bats&#45;&gt;batsm -->
<g id="edge12" class="edge">
<title>bats&#45;&gt;batsm</title>
<path fill="none" stroke="black" d="M102.6,-431.7C102.6,-424.32 102.6,-415.52 102.6,-407.25"/>
<polygon fill="black" stroke="black" points="102.6,-397.32 107.1,-407.32 102.6,-401.1 102.6,-407.32 102.6,-407.32 102.6,-407.32 102.6,-401.1 98.1,-407.32 102.6,-397.32"/>
</g>
<!-- batsma -->
<g id="node14" class="node">
<title>batsma</title>
<polygon fill="none" stroke="black" points="130.43,-324 74.78,-324 74.78,-288 130.43,-288 130.43,-324"/>
<text text-anchor="middle" x="102.6" y="-301.8" font-family="Times,serif" font-size="14.00">batsma</text>
</g>
<!-- batsm&#45;&gt;batsma -->
<g id="edge13" class="edge">
<title>batsm&#45;&gt;batsma</title>
<path fill="none" stroke="black" d="M102.6,-359.7C102.6,-352.32 102.6,-343.52 102.6,-335.25"/>
<polygon fill="black" stroke="black" points="102.6,-325.32 107.1,-335.32 102.6,-329.1 102.6,-335.32 102.6,-335.32 102.6,-335.32 102.6,-329.1 98.1,-335.32 102.6,-325.32"/>
</g>
<!-- batsman -->
<g id="node15" class="node">
<title>batsman</title>
<polygon fill="none" stroke="red" points="125.93,-252 69.28,-252 69.28,-216 131.93,-216 131.93,-246 125.93,-252"/>
<polyline fill="none" stroke="red" points="125.93,-252 125.93,-246"/>
<polyline fill="none" stroke="red" points="131.93,-246 125.93,-246"/>
<text text-anchor="middle" x="100.6" y="-229.8" font-family="Times,serif" font-size="14.00">batsman</text>
</g>
<!-- batsma&#45;&gt;batsman -->
<g id="edge14" class="edge">
<title>batsma&#45;&gt;batsman</title>
<path fill="none" stroke="black" d="M102.11,-287.7C101.9,-280.32 101.65,-271.52 101.41,-263.25"/>
<polygon fill="black" stroke="black" points="101.13,-253.32 105.91,-263.19 101.24,-257.1 101.41,-263.32 101.41,-263.32 101.41,-263.32 101.24,-257.1 96.91,-263.45 101.13,-253.32"/>
</g>
<!-- battl -->
<g id="node17" class="node">
<title>battl</title>
<polygon fill="none" stroke="black" points="202.6,-396 148.6,-396 148.6,-360 202.6,-360 202.6,-396"/>
<text text-anchor="middle" x="175.6" y="-373.8" font-family="Times,serif" font-size="14.00">battl</text>
</g>
<!-- batt&#45;&gt;battl -->
<g id="edge16" class="edge">
<title>batt&#45;&gt;battl</title>
<path fill="none" stroke="black" d="M174.85,-431.7C174.96,-424.32 175.08,-415.52 175.2,-407.25"/>
<polygon fill="black" stroke="black" points="175.34,-397.32 179.7,-407.39 175.29,-401.1 175.2,-407.32 175.2,-407.32 175.2,-407.32 175.29,-401.1 170.7,-407.26 175.34,-397.32"/>
</g>
<!-- battle -->
<g id="node18" class="node">
<title>battle</title>
<polygon fill="none" stroke="red" points="196.6,-324 148.6,-324 148.6,-288 202.6,-288 202.6,-318 196.6,-324"/>
<polyline fill="none" stroke="red" points="196.6,-324 196.6,-318"/>
<polyline fill="none" stroke="red" points="202.6,-318 196.6,-318"/>
<text text-anchor="middle" x="175.6" y="-301.8" font-family="Times,serif" font-size="14.00">battle</text>
</g>
<!-- battl&#45;&gt;battle -->
<g id="edge17" class="edge">
<title>battl&#45;&gt;battle</title>
<path fill="none" stroke="black" d="M175.6,-359.7C175.6,-352.32 175.6,-343.52 175.6,-335.25"/>
<polygon fill="black" stroke="black" points="175.6,-325.32 180.1,-335.32 175.6,-329.1 175.6,-335.32 175.6,-335.32 175.6,-335.32 175.6,-329.1 171.1,-335.32 175.6,-325.32"/>
</g>
<!-- battles -->
<g id="node19" class="node">
<title>battles</title>
<polygon fill="none" stroke="black" points="203.6,-252 149.6,-252 149.6,-216 203.6,-216 203.6,-252"/>
<text text-anchor="middle" x="176.6" y="-229.8" font-family="Times,serif" font-size="14.00">battles</text>
</g>
<!-- battle&#45;&gt;battles -->
<g id="edge18" class="edge">
<title>battle&#45;&gt;battles</title>
<path fill="none" stroke="black" d="M175.85,-287.7C175.96,-280.32 176.08,-271.52 176.2,-263.25"/>
<polygon fill="black" stroke="black" points="176.34,-253.32 180.7,-263.39 176.29,-257.1 176.2,-263.32 176.2,-263.32 176.2,-263.32 176.29,-257.1 171.7,-263.26 176.34,-253.32"/>
</g>
<!-- battlesh -->
<g id="node20" class="node">
<title>battlesh</title>
<polygon fill="none" stroke="black" points="206.38,-180 146.83,-180 146.83,-144 206.38,-144 206.38,-180"/>
<text text-anchor="middle" x="176.6" y="-157.8" font-family="Times,serif" font-size="14.00">battlesh</text>
</g>
<!-- battles&#45;&gt;battlesh -->
<g id="edge19" class="edge">
<title>battles&#45;&gt;battlesh</title>
<path fill="none" stroke="black" d="M176.6,-215.7C176.6,-208.32 176.6,-199.52 176.6,-191.25"/>
<polygon fill="black" stroke="black" points="176.6,-181.32 181.1,-191.32 176.6,-185.1 176.6,-191.32 176.6,-191.32 176.6,-191.32 176.6,-185.1 172.1,-191.32 176.6,-181.32"/>
</g>
<!-- battleshi -->
<g id="node21" class="node">
<title>battleshi</title>
<polygon fill="none" stroke="black" points="208.32,-108 144.89,-108 144.89,-72 208.32,-72 208.32,-108"/>
<text text-anchor="middle" x="176.6" y="-85.8" font-family="Times,serif" font-size="14.00">battleshi</text>
</g>
<!-- battlesh&#45;&gt;battleshi -->
<g id="edge20" class="edge">
<title>battlesh&#45;&gt;battleshi</title>
<path fill="none" stroke="black" d="M176.6,-143.7C176.6,-136.32 176.6,-127.52 176.6,-119.25"/>
<polygon fill="black" stroke="black" points="176.6,-109.32 181.1,-119.32 176.6,-113.1 176.6,-119.32 176.6,-119.32 176.6,-119.32 176.6,-113.1 172.1,-119.32 176.6,-109.32"/>
</g>
<!-- battleship -->
<g id="node22" class="node">
<title>battleship</title>
<polygon fill="none" stroke="red" points="205.82,-36 141.39,-36 141.39,0 211.82,0 211.82,-30 205.82,-36"/>
<polyline fill="none" stroke="red" points="205.82,-36 205.82,-30"/>
<polyline fill="none" stroke="red" points="211.82,-30 205.82,-30"/>
<text text-anchor="middle" x="176.6" y="-13.8" font-family="Times,serif" font-size="14.00">battleship</text>
</g>
<!-- battleshi&#45;&gt;battleship -->
<g id="edge21" class="edge">
<title>battleshi&#45;&gt;battleship</title>
<path fill="none" stroke="black" d="M176.6,-71.7C176.6,-64.32 176.6,-55.52 176.6,-47.25"/>
<polygon fill="black" stroke="black" points="176.6,-37.32 181.1,-47.32 176.6,-41.1 176.6,-47.32 176.6,-47.32 176.6,-47.32 176.6,-41.1 172.1,-47.32 176.6,-37.32"/>
</g>
<!-- le -->
<g id="node24" class="node">
<title>le</title>
<polygon fill="none" stroke="black" points="274.6,-612 220.6,-612 220.6,-576 274.6,-576 274.6,-612"/>
<text text-anchor="middle" x="247.6" y="-589.8" font-family="Times,serif" font-size="14.00">le</text>
</g>
<!-- l&#45;&gt;le -->
<g id="edge23" class="edge">
<title>l&#45;&gt;le</title>
<path fill="none" stroke="black" d="M247.6,-647.7C247.6,-640.32 247.6,-631.52 247.6,-623.25"/>
<polygon fill="black" stroke="black" points="247.6,-613.32 252.1,-623.32 247.6,-617.1 247.6,-623.32 247.6,-623.32 247.6,-623.32 247.6,-617.1 243.1,-623.32 247.6,-613.32"/>
</g>
<!-- li -->
<g id="node33" class="node">
<title>li</title>
<polygon fill="none" stroke="black" points="346.6,-612 292.6,-612 292.6,-576 346.6,-576 346.6,-612"/>
<text text-anchor="middle" x="319.6" y="-589.8" font-family="Times,serif" font-size="14.00">li</text>
</g>
<!-- l&#45;&gt;li -->
<g id="edge32" class="edge">
<title>l&#45;&gt;li</title>
<path fill="none" stroke="black" d="M265.4,-647.7C273.97,-639.37 284.4,-629.22 293.82,-620.07"/>
<polygon fill="black" stroke="black" points="300.89,-613.2 296.85,-623.39 298.18,-615.83 293.72,-620.17 293.72,-620.17 293.72,-620.17 298.18,-615.83 290.58,-616.94 300.89,-613.2"/>
</g>
<!-- let -->
<g id="node25" class="node">
<title>let</title>
<polygon fill="none" stroke="red" points="268.6,-540 220.6,-540 220.6,-504 274.6,-504 274.6,-534 268.6,-540"/>
<polyline fill="none" stroke="red" points="268.6,-540 268.6,-534"/>
<polyline fill="none" stroke="red" points="274.6,-534 268.6,-534"/>
<text text-anchor="middle" x="247.6" y="-517.8" font-family="Times,serif" font-size="14.00">let</text>
</g>
<!-- le&#45;&gt;let -->
<g id="edge24" class="edge">
<title>le&#45;&gt;let</title>
<path fill="none" stroke="black" d="M247.6,-575.7C247.6,-568.32 247.6,-559.52 247.6,-551.25"/>
<polygon fill="black" stroke="black" points="247.6,-541.32 252.1,-551.32 247.6,-545.1 247.6,-551.32 247.6,-551.32 247.6,-551.32 247.6,-545.1 243.1,-551.32 247.6,-541.32"/>
</g>
<!-- lett -->
<g id="node26" class="node">
<title>lett</title>
<polygon fill="none" stroke="black" points="274.6,-468 220.6,-468 220.6,-432 274.6,-432 274.6,-468"/>
<text text-anchor="middle" x="247.6" y="-445.8" font-family="Times,serif" font-size="14.00">lett</text>
</g>
<!-- let&#45;&gt;lett -->
<g id="edge25" class="edge">
<title>let&#45;&gt;lett</title>
<path fill="none" stroke="black" d="M247.6,-503.7C247.6,-496.32 247.6,-487.52 247.6,-479.25"/>
<polygon fill="black" stroke="black" points="247.6,-469.32 252.1,-479.32 247.6,-473.1 247.6,-479.32 247.6,-479.32 247.6,-479.32 247.6,-473.1 243.1,-479.32 247.6,-469.32"/>
</g>
<!-- lette -->
<g id="node27" class="node">
<title>lette</title>
<polygon fill="none" stroke="black" points="274.6,-396 220.6,-396 220.6,-360 274.6,-360 274.6,-396"/>
<text text-anchor="middle" x="247.6" y="-373.8" font-family="Times,serif" font-size="14.00">lette</text>
</g>
<!-- lett&#45;&gt;lette -->
<g id="edge26" class="edge">
<title>lett&#45;&gt;lette</title>
<path fill="none" stroke="black" d="M247.6,-431.7C247.6,-424.32 247.6,-415.52 247.6,-407.25"/>
<polygon fill="black" stroke="black" points="247.6,-397.32 252.1,-407.32 247.6,-401.1 247.6,-407.32 247.6,-407.32 247.6,-407.32 247.6,-401.1 243.1,-407.32 247.6,-397.32"/>
</g>
<!-- letti -->
<g id="node29" class="node">
<title>letti</title>
<polygon fill="none" stroke="black" points="346.6,-396 292.6,-396 292.6,-360 346.6,-360 346.6,-396"/>
<text text-anchor="middle" x="319.6" y="-373.8" font-family="Times,serif" font-size="14.00">letti</text>
</g>
<!-- lett&#45;&gt;letti -->
<g id="edge28" class="edge">
<title>lett&#45;&gt;letti</title>
<path fill="none" stroke="black" d="M265.4,-431.7C273.97,-423.37 284.4,-413.22 293.82,-404.07"/>
<polygon fill="black" stroke="black" points="300.89,-397.2 296.85,-407.39 298.18,-399.83 293.72,-404.17 293.72,-404.17 293.72,-404.17 298.18,-399.83 290.58,-400.94 300.89,-397.2"/>
</g>
<!-- letter -->
<g id="node28" class="node">
<title>letter</title>
<polygon fill="none" stroke="red" points="268.6,-324 220.6,-324 220.6,-288 274.6,-288 274.6,-318 268.6,-324"/>
<polyline fill="none" stroke="red" points="268.6,-324 268.6,-318"/>
<polyline fill="none" stroke="red" points="274.6,-318 268.6,-318"/>
<text text-anchor="middle" x="247.6" y="-301.8" font-family="Times,serif" font-size="14.00">letter</text>
</g>
<!-- lette&#45;&gt;letter -->
<g id="edge27" class="edge">
<title>lette&#45;&gt;letter</title>
<path fill="none" stroke="black" d="M247.6,-359.7C247.6,-352.32 247.6,-343.52 247.6,-335.25"/>
<polygon fill="black" stroke="black" points="247.6,-325.32 252.1,-335.32 247.6,-329.1 247.6,-335.32 247.6,-335.32 247.6,-335.32 247.6,-329.1 243.1,-335.32 247.6,-325.32"/>
</g>
<!-- lettin -->
<g id="node30" class="node">
<title>lettin</title>
<polygon fill="none" stroke="black" points="346.6,-324 292.6,-324 292.6,-288 346.6,-288 346.6,-324"/>
<text text-anchor="middle" x="319.6" y="-301.8" font-family="Times,serif" font-size="14.00">lettin</text>
</g>
<!-- letti&#45;&gt;lettin -->
<g id="edge29" class="edge">
<title>letti&#45;&gt;lettin</title>
<path fill="none" stroke="black" d="M319.6,-359.7C319.6,-352.32 319.6,-343.52 319.6,-335.25"/>
<polygon fill="black" stroke="black" points="319.6,-325.32 324.1,-335.32 319.6,-329.1 319.6,-335.32 319.6,-335.32 319.6,-335.32 319.6,-329.1 315.1,-335.32 319.6,-325.32"/>
</g>
<!-- letting -->
<g id="node31" class="node">
<title>letting</title>
<polygon fill="none" stroke="black" points="346.6,-252 292.6,-252 292.6,-216 346.6,-216 346.6,-252"/>
<text text-anchor="middle" x="319.6" y="-229.8" font-family="Times,serif" font-size="14.00">letting</text>
</g>
<!-- lettin&#45;&gt;letting -->
<g id="edge30" class="edge">
<title>lettin&#45;&gt;letting</title>
<path fill="none" stroke="black" d="M319.6,-287.7C319.6,-280.32 319.6,-271.52 319.6,-263.25"/>
<polygon fill="black" stroke="black" points="319.6,-253.32 324.1,-263.32 319.6,-257.1 319.6,-263.32 319.6,-263.32 319.6,-263.32 319.6,-257.1 315.1,-263.32 319.6,-253.32"/>
</g>
<!-- lettings -->
<g id="node32" class="node">
<title>lettings</title>
<polygon fill="none" stroke="red" points="342.21,-180 290.99,-180 290.99,-144 348.21,-144 348.21,-174 342.21,-180"/>
<polyline fill="none" stroke="red" points="342.21,-180 342.21,-174"/>
<polyline fill="none" stroke="red" points="348.21,-174 342.21,-174"/>
<text text-anchor="middle" x="319.6" y="-157.8" font-family="Times,serif" font-size="14.00">lettings</text>
</g>
<!-- letting&#45;&gt;lettings -->
<g id="edge31" class="edge">
<title>letting&#45;&gt;lettings</title>
<path fill="none" stroke="black" d="M319.6,-215.7C319.6,-208.32 319.6,-199.52 319.6,-191.25"/>
<polygon fill="black" stroke="black" points="319.6,-181.32 324.1,-191.32 319.6,-185.1 319.6,-191.32 319.6,-191.32 319.6,-191.32 319.6,-185.1 315.1,-191.32 319.6,-181.32"/>
</g>
<!-- lio -->
<g id="node34" class="node">
<title>lio</title>
<polygon fill="none" stroke="black" points="346.6,-540 292.6,-540 292.6,-504 346.6,-504 346.6,-540"/>
<text text-anchor="middle" x="319.6" y="-517.8" font-family="Times,serif" font-size="14.00">lio</text>
</g>
<!-- li&#45;&gt;lio -->
<g id="edge33" class="edge">
<title>li&#45;&gt;lio</title>
<path fill="none" stroke="black" d="M319.6,-575.7C319.6,-568.32 319.6,-559.52 319.6,-551.25"/>
<polygon fill="black" stroke="black" points="319.6,-541.32 324.1,-551.32 319.6,-545.1 319.6,-551.32 319.6,-551.32 319.6,-551.32 319.6,-545.1 315.1,-551.32 319.6,-541.32"/>
</g>
<!-- liq -->
<g id="node36" class="node">
<title>liq</title>
<polygon fill="none" stroke="black" points="418.6,-540 364.6,-540 364.6,-504 418.6,-504 418.6,-540"/>
<text text-anchor="middle" x="391.6" y="-517.8" font-family="Times,serif" font-size="14.00">liq</text>
</g>
<!-- li&#45;&gt;liq -->
<g id="edge35" class="edge">
<title>li&#45;&gt;liq</title>
<path fill="none" stroke="black" d="M337.4,-575.7C345.97,-567.37 356.4,-557.22 365.82,-548.07"/>
<polygon fill="black" stroke="black" points="372.89,-541.2 368.85,-551.39 370.18,-543.83 365.72,-548.17 365.72,-548.17 365.72,-548.17 370.18,-543.83 362.58,-544.94 372.89,-541.2"/>
</g>
<!-- lion -->
<g id="node35" class="node">
<title>lion</title>
<polygon fill="none" stroke="red" points="340.6,-468 292.6,-468 292.6,-432 346.6,-432 346.6,-462 340.6,-468"/>
<polyline fill="none" stroke="red" points="340.6,-468 340.6,-462"/>
<polyline fill="none" stroke="red" points="346.6,-462 340.6,-462"/>
<text text-anchor="middle" x="319.6" y="-445.8" font-family="Times,serif" font-size="14.00">lion</text>
</g>
<!-- lio&#45;&gt;lion -->
<g id="edge34" class="edge">
<title>lio&#45;&gt;lion</title>
<path fill="none" stroke="black" d="M319.6,-503.7C319.6,-496.32 319.6,-487.52 319.6,-479.25"/>
<polygon fill="black" stroke="black" points="319.6,-469.32 324.1,-479.32 319.6,-473.1 319.6,-479.32 319.6,-479.32 319.6,-479.32 319.6,-473.1 315.1,-479.32 319.6,-469.32"/>
</g>
<!-- liqu -->
<g id="node37" class="node">
<title>liqu</title>
<polygon fill="none" stroke="black" points="418.6,-468 364.6,-468 364.6,-432 418.6,-432 418.6,-468"/>
<text text-anchor="middle" x="391.6" y="-445.8" font-family="Times,serif" font-size="14.00">liqu</text>
</g>
<!-- liq&#45;&gt;liqu -->
<g id="edge36" class="edge">
<title>liq&#45;&gt;liqu</title>
<path fill="none" stroke="black" d="M391.6,-503.7C391.6,-496.32 391.6,-487.52 391.6,-479.25"/>
<polygon fill="black" stroke="black" points="391.6,-469.32 396.1,-479.32 391.6,-473.1 391.6,-479.32 391.6,-479.32 391.6,-479.32 391.6,-473.1 387.1,-479.32 391.6,-469.32"/>
</g>
<!-- liquo -->
<g id="node38" class="node">
<title>liquo</title>
<polygon fill="none" stroke="black" points="418.6,-396 364.6,-396 364.6,-360 418.6,-360 418.6,-396"/>
<text text-anchor="middle" x="391.6" y="-373.8" font-family="Times,serif" font-size="14.00">liquo</text>
</g>
<!-- liqu&#45;&gt;liquo -->
<g id="edge37" class="edge">
<title>liqu&#45;&gt;liquo</title>
<path fill="none" stroke="black" d="M391.6,-431.7C391.6,-424.32 391.6,-415.52 391.6,-407.25"/>
<polygon fill="black" stroke="black" points="391.6,-397.32 396.1,-407.32 391.6,-401.1 391.6,-407.32 391.6,-407.32 391.6,-407.32 391.6,-401.1 387.1,-407.32 391.6,-397.32"/>
</g>
<!-- liquor -->
<g id="node39" class="node">
<title>liquor</title>
<polygon fill="none" stroke="red" points="412.6,-324 364.6,-324 364.6,-288 418.6,-288 418.6,-318 412.6,-324"/>
<polyline fill="none" stroke="red" points="412.6,-324 412.6,-318"/>
<polyline fill="none" stroke="red" points="418.6,-318 412.6,-318"/>
<text text-anchor="middle" x="391.6" y="-301.8" font-family="Times,serif" font-size="14.00">liquor</text>
</g>
<!-- liquo&#45;&gt;liquor -->
<g id="edge38" class="edge">
<title>liquo&#45;&gt;liquor</title>
<path fill="none" stroke="black" d="M391.6,-359.7C391.6,-352.32 391.6,-343.52 391.6,-335.25"/>
<polygon fill="black" stroke="black" points="391.6,-325.32 396.1,-335.32 391.6,-329.1 391.6,-335.32 391.6,-335.32 391.6,-335.32 391.6,-329.1 387.1,-335.32 391.6,-325.32"/>
</g>
<!-- ze -->
<g id="node41" class="node">
<title>ze</title>
<polygon fill="none" stroke="black" points="508.6,-612 454.6,-612 454.6,-576 508.6,-576 508.6,-612"/>
<text text-anchor="middle" x="481.6" y="-589.8" font-family="Times,serif" font-size="14.00">ze</text>
</g>
<!-- z&#45;&gt;ze -->
<g id="edge40" class="edge">
<title>z&#45;&gt;ze</title>
<path fill="none" stroke="black" d="M481.6,-647.7C481.6,-640.32 481.6,-631.52 481.6,-623.25"/>
<polygon fill="black" stroke="black" points="481.6,-613.32 486.1,-623.32 481.6,-617.1 481.6,-623.32 481.6,-623.32 481.6,-623.32 481.6,-617.1 477.1,-623.32 481.6,-613.32"/>
</g>
<!-- zo -->
<g id="node47" class="node">
<title>zo</title>
<polygon fill="none" stroke="black" points="616.6,-612 562.6,-612 562.6,-576 616.6,-576 616.6,-612"/>
<text text-anchor="middle" x="589.6" y="-589.8" font-family="Times,serif" font-size="14.00">zo</text>
</g>
<!-- z&#45;&gt;zo -->
<g id="edge46" class="edge">
<title>z&#45;&gt;zo</title>
<path fill="none" stroke="black" d="M508.58,-647.52C522.21,-638.68 538.94,-627.84 553.65,-618.3"/>
<polygon fill="black" stroke="black" points="561.95,-612.92 556.01,-622.14 558.78,-614.98 553.56,-618.36 553.56,-618.36 553.56,-618.36 558.78,-614.98 551.11,-614.59 561.95,-612.92"/>
</g>
<!-- zeb -->
<g id="node42" class="node">
<title>zeb</title>
<polygon fill="none" stroke="black" points="490.6,-540 436.6,-540 436.6,-504 490.6,-504 490.6,-540"/>
<text text-anchor="middle" x="463.6" y="-517.8" font-family="Times,serif" font-size="14.00">zeb</text>
</g>
<!-- ze&#45;&gt;zeb -->
<g id="edge41" class="edge">
<title>ze&#45;&gt;zeb</title>
<path fill="none" stroke="black" d="M477.15,-575.7C475.24,-568.24 472.94,-559.32 470.79,-550.97"/>
<polygon fill="black" stroke="black" points="468.31,-541.28 475.15,-549.85 469.25,-544.95 470.8,-550.97 470.8,-550.97 470.8,-550.97 469.25,-544.95 466.44,-552.09 468.31,-541.28"/>
</g>
<!-- zet -->
<g id="node45" class="node">
<title>zet</title>
<polygon fill="none" stroke="black" points="562.6,-540 508.6,-540 508.6,-504 562.6,-504 562.6,-540"/>
<text text-anchor="middle" x="535.6" y="-517.8" font-family="Times,serif" font-size="14.00">zet</text>
</g>
<!-- ze&#45;&gt;zet -->
<g id="edge44" class="edge">
<title>ze&#45;&gt;zet</title>
<path fill="none" stroke="black" d="M494.95,-575.7C501.16,-567.64 508.68,-557.89 515.56,-548.98"/>
<polygon fill="black" stroke="black" points="521.66,-541.07 519.12,-551.74 519.35,-544.06 515.56,-548.99 515.56,-548.99 515.56,-548.99 519.35,-544.06 511.99,-546.24 521.66,-541.07"/>
</g>
<!-- zebr -->
<g id="node43" class="node">
<title>zebr</title>
<polygon fill="none" stroke="black" points="490.6,-468 436.6,-468 436.6,-432 490.6,-432 490.6,-468"/>
<text text-anchor="middle" x="463.6" y="-445.8" font-family="Times,serif" font-size="14.00">zebr</text>
</g>
<!-- zeb&#45;&gt;zebr -->
<g id="edge42" class="edge">
<title>zeb&#45;&gt;zebr</title>
<path fill="none" stroke="black" d="M463.6,-503.7C463.6,-496.32 463.6,-487.52 463.6,-479.25"/>
<polygon fill="black" stroke="black" points="463.6,-469.32 468.1,-479.32 463.6,-473.1 463.6,-479.32 463.6,-479.32 463.6,-479.32 463.6,-473.1 459.1,-479.32 463.6,-469.32"/>
</g>
<!-- zebra -->
<g id="node44" class="node">
<title>zebra</title>
<polygon fill="none" stroke="red" points="484.6,-396 436.6,-396 436.6,-360 490.6,-360 490.6,-390 484.6,-396"/>
<polyline fill="none" stroke="red" points="484.6,-396 484.6,-390"/>
<polyline fill="none" stroke="red" points="490.6,-390 484.6,-390"/>
<text text-anchor="middle" x="463.6" y="-373.8" font-family="Times,serif" font-size="14.00">zebra</text>
</g>
<!-- zebr&#45;&gt;zebra -->
<g id="edge43" class="edge">
<title>zebr&#45;&gt;zebra</title>
<path fill="none" stroke="black" d="M463.6,-431.7C463.6,-424.32 463.6,-415.52 463.6,-407.25"/>
<polygon fill="black" stroke="black" points="463.6,-397.32 468.1,-407.32 463.6,-401.1 463.6,-407.32 463.6,-407.32 463.6,-407.32 463.6,-401.1 459.1,-407.32 463.6,-397.32"/>
</g>
<!-- zeta -->
<g id="node46" class="node">
<title>zeta</title>
<polygon fill="none" stroke="red" points="556.6,-468 508.6,-468 508.6,-432 562.6,-432 562.6,-462 556.6,-468"/>
<polyline fill="none" stroke="red" points="556.6,-468 556.6,-462"/>
<polyline fill="none" stroke="red" points="562.6,-462 556.6,-462"/>
<text text-anchor="middle" x="535.6" y="-445.8" font-family="Times,serif" font-size="14.00">zeta</text>
</g>
<!-- zet&#45;&gt;zeta -->
<g id="edge45" class="edge">
<title>zet&#45;&gt;zeta</title>
<path fill="none" stroke="black" d="M535.6,-503.7C535.6,-496.32 535.6,-487.52 535.6,-479.25"/>
<polygon fill="black" stroke="black" points="535.6,-469.32 540.1,-479.32 535.6,-473.1 535.6,-479.32 535.6,-479.32 535.6,-479.32 535.6,-473.1 531.1,-479.32 535.6,-469.32"/>
</g>
<!-- zoo -->
<g id="node48" class="node">
<title>zoo</title>
<polygon fill="none" stroke="red" points="628.6,-540 580.6,-540 580.6,-504 634.6,-504 634.6,-534 628.6,-540"/>
<polyline fill="none" stroke="red" points="628.6,-540 628.6,-534"/>
<polyline fill="none" stroke="red" points="634.6,-534 628.6,-534"/>
<text text-anchor="middle" x="607.6" y="-517.8" font-family="Times,serif" font-size="14.00">zoo</text>
</g>
<!-- zo&#45;&gt;zoo -->
<g id="edge47" class="edge">
<title>zo&#45;&gt;zoo</title>
<path fill="none" stroke="black" d="M594.05,-575.7C595.97,-568.24 598.26,-559.32 600.41,-550.97"/>
<polygon fill="black" stroke="black" points="602.9,-541.28 604.77,-552.09 601.96,-544.95 600.41,-550.97 600.41,-550.97 600.41,-550.97 601.96,-544.95 596.05,-549.85 602.9,-541.28"/>
</g>
</g>
</svg>
